<?xml version="1.0" encoding="utf-8"?>
<!-- Generator: Adobe Illustrator 24.1.1, SVG Export Plug-In . SVG Version: 6.00 Build 0)  -->
<svg version="1.1" id="Layer_1" xmlns="http://www.w3.org/2000/svg" xmlns:xlink="http://www.w3.org/1999/xlink" x="0px" y="0px"
	 viewBox="0 0 1024 768" style="enable-background:new 0 0 1024 768;" xml:space="preserve">
<style type="text/css">
	.st0{fill:#717171;}
</style>
<path class="st0" d="M113.57,475.2H78.79v-86.71H55.09v-28.23h23.69v-20.09c0-23.8,10.48-40.88,45.17-40.88
	c7.34,0,18.85,1.48,18.85,1.48v26.21h-12.1c-12.33,0-17.14,3.75-17.14,14.12v19.16h28.78l-2.56,28.23h-26.21L113.57,475.2z
	 M193.38,358c-0.51,0-1.03,0.02-1.54,0.03c-32.25,0-47.01,24.26-47.01,58.7c0,43.38,19.14,60.75,47.26,60.75
	c16.09,0,26.66-6.77,33.08-19.41v17.14h33.08V360.27h-33.08v17.68C219.92,366.57,209.06,358.14,193.38,358z M201.79,385.16
	c13.55,0,21.68,9.45,21.68,25.52l0.03,16.42c0,10.83-6.72,23.51-21.71,23.51c-23.05,0-22.43-24.89-22.43-33.18
	C179.36,389.54,191.64,385.16,201.79,385.16L201.79,385.16z M271.61,417.75c0-13.97-0.67-59.67,58.87-59.67
	c23.9,0,33.88,7.6,33.88,7.6l-8.02,24.88c0,0-9.97-5.49-22.96-5.49c-16.63,0-27.25,9.64-27.25,26.61l0.02,12.17
	c0,16.3,10.24,27.19,27.26,27.19c11.83,0,22.74-5.54,22.74-5.54l8,24.36c0,0-9.13,7.65-33.51,7.65
	C273.96,477.5,271.61,436.49,271.61,417.75L271.61,417.75z M558.35,358.03c32.25,0,47.24,24.26,47.24,58.7
	c0,43.38-19.14,60.75-47.26,60.75c-16.09,0-27.98-6.77-34.41-19.41v17.14l-32.67-0.01V302.79l34.68-3.02v76.63
	C530.94,362.98,547.39,358.03,558.35,358.03L558.35,358.03z M548.62,385.16c-13.55,0-22.68,9.45-22.68,25.52l-0.03,16.42
	c-0.02,10.83,6.33,23.51,22.72,23.51c23.05,0,22.43-24.89,22.43-33.18C571.06,389.54,558.78,385.16,548.62,385.16z M424.55,358.13
	c-36.58,0-55.89,19.94-55.89,55.39v6.59c0,46,27.12,57.85,59.45,57.85c31.43,0,45.65-8.79,45.65-8.79l-6.49-23.41
	c0,0-16.73,7.12-35,7.12c-18.94,0-27.09-4.83-29.18-23.03h73.44v-18.78C476.53,372.61,454.86,358.13,424.55,358.13L424.55,358.13z
	 M425.43,381.57c12.66,0,20.87,7.76,20.42,25.77h-42.69C403.89,388.39,412.74,381.57,425.43,381.57L425.43,381.57z M674.75,357.97
	c-37.57,0-57.34,21.17-57.34,59.11c0,52.05,34.09,60.43,57.41,60.43c34.13,0,56.84-18.38,56.84-59.96
	C731.65,374.27,706.12,357.97,674.75,357.97z M674.27,385.26c16.52,0,23.06,12.36,23.06,26.44v12.1c0,17.05-9.16,26.91-23.13,26.91
	c-13.06,0-22.24-9.22-22.24-26.91v-12.1C651.97,392.83,662.89,385.26,674.27,385.26z M800.74,357.97
	c-37.57,0-57.34,21.17-57.34,59.11c0,52.05,34.09,60.43,57.41,60.43c34.13,0,56.84-18.38,56.84-59.96
	C857.65,374.27,832.11,357.97,800.74,357.97z M800.27,385.26c16.52,0,23.06,12.36,23.06,26.44v12.1c0,17.05-9.16,26.91-23.13,26.91
	c-13.06,0-22.24-9.22-22.24-26.91v-12.1C777.96,392.83,788.89,385.26,800.27,385.26z M870.75,475.2V302.79l34.78-3.02v115.56
	l34.51-55.06h36.73l-36,57.03l37.39,57.91h-36.84l-35.79-56.23v56.23L870.75,475.2z"/>
</svg>
