<?xml version="1.0" encoding="utf-8"?>
<!-- Generator: Adobe Illustrator 24.1.1, SVG Export Plug-In . SVG Version: 6.00 Build 0)  -->
<svg version="1.1" id="Layer_1" xmlns="http://www.w3.org/2000/svg" xmlns:xlink="http://www.w3.org/1999/xlink" x="0px" y="0px"
	 viewBox="0 0 1024 768" style="enable-background:new 0 0 1024 768;" xml:space="preserve">
<style type="text/css">
	.st0{fill:#717171;}
	.st1{fill:none;}
</style>
<path class="st0" d="M412.5,303.62c-11.69,4.89-24.55,18.7-28.61,36.07c-5.15,21.99,16.26,31.27,18.01,28.24
	c2.06-3.59-3.85-4.8-5.05-16.2c-1.55-14.74,5.28-31.21,13.91-38.44c1.61-1.32,1.53,0.54,1.53,3.98c0,6.2-0.35,61.65-0.35,73.23
	c0,15.67-0.64,20.61-1.83,25.48c-1.16,4.96-3.05,8.3-1.63,9.6c1.61,1.44,8.45-1.98,12.41-7.52c4.74-6.63,6.41-14.59,6.72-23.23
	c0.35-10.41,0.33-26.96,0.35-36.38c0-8.66,0.14-33.99-0.14-49.24C427.74,305.48,417.37,301.57,412.5,303.62 M951.59,385.89
	c-1.67,0-2.47,1.75-3.11,4.68c-2.21,10.24-4.54,12.54-7.56,12.54c-3.36,0-6.37-5.07-7.17-15.21c-0.6-7.96-0.51-22.65,0.27-37.26
	c0.16-2.99-0.66-5.96-8.7-8.89c-3.47-1.24-8.51-3.11-11.01,2.95c-7.09,17.08-9.85,30.67-10.51,36.17c-0.02,0.29-0.37,0.33-0.43-0.33
	c-0.4-4.41-1.34-12.43-1.45-29.3c-0.04-3.26-0.72-6.08-4.37-8.37c-2.35-1.47-9.5-4.12-12.08-0.99c-2.21,2.56-4.8,9.44-7.49,17.6
	c-2.18,6.64-3.69,11.15-3.69,11.15s0.02-17.91,0.06-24.71c0-2.56-1.75-3.42-2.27-3.57c-2.39-0.7-7.11-1.84-9.09-1.84
	c-2.47,0-3.05,1.38-3.05,3.38c0,0.25-0.41,23.56-0.41,39.86v2.29c-1.34,7.5-5.77,17.68-10.57,17.68s-7.07-4.26-7.07-23.68
	c0-11.33,0.35-16.26,0.51-24.46c0.09-4.72,0.29-8.35,0.27-9.19c-0.04-2.51-4.41-3.79-6.43-4.26c-2.04-0.49-3.81-0.64-5.2-0.58
	c-1.94,0.12-3.32,1.4-3.32,3.19v2.72c-2.51-3.96-6.57-6.72-9.29-7.52c-7.26-2.16-14.86-0.23-20.59,7.77
	c-4.54,6.38-7.28,13.58-8.35,23.93c-0.8,7.58-0.54,15.25,0.87,21.74c-1.71,7.32-4.86,10.33-8.29,10.33c-5.01,0-8.62-8.16-8.21-22.28
	c0.29-9.28,2.14-15.79,4.17-25.23c0.88-4.02,0.16-6.12-1.61-8.16c-1.61-1.83-5.07-2.78-10.02-1.63c-3.52,0.84-8.59,1.73-13.19,2.41
	c0,0,0.27-1.11,0.51-3.07c1.19-10.28-9.98-9.44-13.54-6.16c-2.14,1.96-3.59,4.27-4.14,8.43c-0.87,6.61,4.51,9.71,4.51,9.71
	c-1.77,8.08-6.08,18.64-10.57,26.28c-2.39,4.1-4.22,7.11-6.59,10.33c-0.02-1.19-0.02-2.39-0.02-3.57c-0.04-17,0.17-30.38,0.27-35.2
	c0.1-4.72,0.29-8.26,0.29-9.09c-0.04-1.83-1.11-2.54-3.36-3.4c-1.98-0.77-4.33-1.34-6.76-1.54c-3.05-0.23-4.91,1.4-4.86,3.32v2.58
	c-2.52-3.96-6.59-6.72-9.26-7.52c-7.28-2.16-14.88-0.23-20.61,7.77c-4.53,6.38-7.52,15.29-8.38,23.83
	c-0.77,8.01-0.64,14.76,0.45,20.48c-1.16,5.71-4.49,11.69-8.25,11.69c-4.8,0-7.54-4.26-7.54-23.68c0-11.33,0.35-16.26,0.53-24.46
	c0.09-4.72,0.27-8.35,0.25-9.19c-0.02-2.51-4.39-3.79-6.43-4.26c-2.12-0.5-3.96-0.66-5.36-0.58c-1.86,0.16-3.16,1.81-3.16,3.07v2.84
	c-2.52-3.96-6.59-6.72-9.29-7.52c-7.26-2.16-14.8-0.19-20.57,7.77c-3.77,5.19-6.82,10.96-8.39,23.74
	c-0.43,3.69-0.64,7.15-0.62,10.37c-1.5,9.17-8.12,19.73-13.52,19.73c-3.19,0-6.21-6.14-6.21-19.25c0-17.44,1.09-42.31,1.28-44.71
	c0,0,6.84-0.12,8.18-0.14c3.4-0.02,6.51,0.06,11.03-0.18c2.29-0.12,4.49-8.29,2.12-9.32c-1.05-0.45-8.59-0.86-11.58-0.91
	c-2.52-0.06-9.5-0.58-9.5-0.58s0.63-16.49,0.76-18.22c0.12-1.48-1.75-2.21-2.84-2.66c-2.63-1.12-4.98-1.65-7.73-2.21
	c-3.86-0.79-5.59-0.02-5.92,3.22c-0.51,4.92-0.78,19.33-0.78,19.33c-2.84,0-12.45-0.57-15.27-0.57c-2.62,0-5.46,11.27-1.82,11.4
	c4.18,0.16,11.42,0.31,16.24,0.44c0,0-0.21,25.27-0.21,33.06v2.41c-2.66,13.81-11.96,21.27-11.96,21.27
	c2-9.15-2.08-16.01-9.46-21.79c-2.72-2.16-8.08-6.22-14.08-10.63c0,0,3.48-3.44,6.56-10.31c2.18-4.88,2.28-10.49-3.09-11.71
	c-8.86-2.04-16.14,4.47-18.34,11.42c-1.67,5.36-0.79,9.36,2.52,13.5l0.76,0.93c-1.98,3.84-4.74,9.03-7.05,13.05
	c-6.47,11.17-11.34,19.99-15.01,19.99c-2.95,0-2.91-8.96-2.91-17.35c0-7.23,0.54-18.12,0.97-29.39c0.14-3.71-1.73-5.85-4.85-7.77
	c-1.91-1.16-5.95-3.46-8.3-3.46c-3.49,0-13.64,0.46-23.21,28.14c-1.21,3.5-3.58,9.85-3.58,9.85l0.21-33.29
	c0-0.78-0.41-1.51-1.36-2.04c-1.61-0.87-5.94-2.66-9.75-2.66c-1.85,0-2.76,0.86-2.76,2.54l-0.31,52.06c0,3.96,0.09,8.59,0.49,10.61
	c0.39,2.02,1.03,3.67,1.81,4.66c0.78,0.95,1.69,1.69,3.16,2.02c1.38,0.29,8.97,1.24,9.36-1.65c0.49-3.48,0.5-7.22,4.49-21.27
	c6.21-21.83,14.3-32.48,18.11-36.27c0.68-0.66,1.44-0.7,1.4,0.39c-0.17,4.79-0.74,16.74-1.12,26.9
	c-1.03,27.21,3.9,32.24,10.99,32.24c5.4,0,13.01-5.38,21.19-18.97c5.11-8.49,10.04-16.78,13.62-22.78c2.45,2.29,5.24,4.76,8.02,7.4
	c6.47,6.12,8.59,11.94,7.17,17.46c-1.07,4.23-5.13,8.58-12.33,4.35c-2.1-1.23-2.99-2.18-5.11-3.58c-1.13-0.76-2.88-0.97-3.91-0.19
	c-2.72,2.04-4.26,4.62-5.15,7.83c-0.84,3.13,2.29,4.76,5.54,6.19c2.78,1.26,8.76,2.37,12.59,2.51c14.9,0.51,26.83-7.19,35.12-27
	c1.5,17.11,7.81,26.81,18.78,26.81c7.36,0,14.72-9.5,17.95-18.84c0.91,3.81,2.29,7.11,4.06,9.93c8.47,13.4,24.9,10.53,33.14-0.86
	c2.56-3.54,2.96-4.8,2.96-4.8c1.2,10.75,9.87,14.53,14.82,14.53c5.57,0,11.29-2.64,15.3-11.69c0.49,0.99,0.99,1.93,1.58,2.82
	c8.45,13.4,24.88,10.53,33.14-0.86c0.37-0.56,0.72-1.03,1.01-1.48l0.26,7.07c0,0-4.72,4.31-7.61,6.97
	c-12.72,11.68-22.4,20.53-23.11,30.83c-0.89,13.15,9.75,18.03,17.83,18.66c8.55,0.68,15.89-4.04,20.39-10.68
	c3.96-5.83,6.57-18.36,6.38-30.75c-0.08-4.97-0.2-11.26-0.31-18.04c4.49-5.17,9.54-11.73,14.16-19.42
	c5.07-8.36,10.47-19.6,13.22-28.36c0,0,4.72,0.04,9.73-0.27c1.61-0.1,2.08,0.23,1.77,1.4c-0.35,1.42-6.33,24.51-0.87,39.9
	c3.75,10.52,12.16,13.92,17.17,13.92c5.84,0,11.44-4.43,14.43-10.99c0.37,0.72,0.74,1.44,1.17,2.1c8.45,13.4,24.82,10.51,33.14-0.86
	c1.88-2.58,2.93-4.8,2.93-4.8c1.79,11.13,10.45,14.57,15.4,14.57c5.19,0,10.08-2.12,14.06-11.52c0.16,4.14,0.41,7.52,0.84,8.59
	c0.25,0.66,1.73,1.48,2.78,1.89c4.74,1.75,9.56,0.91,11.32,0.54c1.24-0.25,2.21-1.22,2.33-3.79c0.35-6.72,0.13-18.01,2.17-26.41
	c3.44-14.06,6.62-19.52,8.14-22.22c0.84-1.52,1.81-1.77,1.83-0.18c0.06,3.24,0.23,12.76,1.57,25.58c0.95,9.4,2.26,14.97,3.26,16.74
	c2.84,5.03,6.37,5.26,9.23,5.26c1.83,0,5.63-0.51,5.3-3.71c-0.17-1.55,0.12-11.21,3.48-25.07c2.21-9.07,5.89-17.25,7.21-20.24
	c0.51-1.11,0.72-0.25,0.72-0.08c-0.29,6.24-0.91,26.65,1.61,37.8c3.46,15.13,13.42,16.82,16.9,16.82c7.4,0,13.48-5.63,15.52-20.47
	C954.52,388.65,953.78,385.89,951.59,385.89 M641.02,376.73c-0.41,7.84-1.94,14.41-4.39,19.17c-4.47,8.64-13.27,11.36-17.13-1.09
	c-2.82-8.99-1.86-21.27-0.68-27.9c1.71-9.83,6.04-16.78,12.8-16.14C638.53,351.46,641.91,360.37,641.02,376.73 M708.79,376.84
	c-0.39,7.4-2.31,14.86-4.41,19.06c-4.33,8.7-13.38,11.42-17.13-1.09c-2.56-8.57-1.96-19.62-0.68-26.58
	c1.65-9.05,5.63-17.46,12.8-17.46C706.34,350.77,709.78,358.43,708.79,376.84 M710.56,427.42c-0.1,13.54-2.21,25.39-6.76,28.85
	c-6.49,4.89-15.21,1.2-13.4-8.66c1.59-8.74,9.15-17.66,20.18-28.56C710.58,419.05,710.62,421.54,710.56,427.42 M827.57,376.92
	c-0.39,8.14-2.2,14.49-4.43,18.98c-4.33,8.7-13.31,11.4-17.13-1.09c-2.08-6.82-2.18-18.2-0.68-27.7c1.51-9.68,5.77-16.98,12.8-16.34
	C825.08,351.44,828.33,360.37,827.57,376.92"/>
<rect x="224.63" y="299.62" class="st1" width="130" height="130"/>
<path class="st0" d="M337.19,300.65h-95.12c-9.04,0-16.44,7.38-16.44,16.4v95.16c0,9.02,7.4,16.39,16.44,16.39h95.12
	c9.05,0,16.44-7.37,16.44-16.39v-95.16C353.63,308.03,346.24,300.65,337.19,300.65z M317.08,320.73c0-2.67,2.18-4.85,4.86-4.85
	h11.61c2.67,0,4.86,2.18,4.86,4.85v11.59c0,2.67-2.19,4.85-4.86,4.85h-11.61c-2.68,0-4.86-2.18-4.86-4.85L317.08,320.73
	L317.08,320.73z M289.63,337.21c15.15,0,27.42,12.26,27.42,27.38c0,15.13-12.27,27.39-27.42,27.39s-27.42-12.26-27.42-27.39
	C262.21,349.46,274.48,337.21,289.63,337.21z M341.53,411.31c0,2.8-2.28,5.07-5.09,5.07h-93.48c-2.8,0-5.09-2.27-5.09-5.07v-55.88
	h13.19c-0.69,2.93-1.09,5.97-1.09,9.11c0,21.9,17.78,39.66,39.71,39.66c21.94,0,39.71-17.76,39.71-39.66c0-3.14-0.45-6.18-1.14-9.11
	h13.28V411.31z"/>
</svg>
