<?xml version="1.0" encoding="utf-8"?>
<!-- Generator: Adobe Illustrator 24.1.1, SVG Export Plug-In . SVG Version: 6.00 Build 0)  -->
<svg version="1.1" id="Layer_1" xmlns="http://www.w3.org/2000/svg" xmlns:xlink="http://www.w3.org/1999/xlink" x="0px" y="0px"
	 viewBox="0 0 1024 768" style="enable-background:new 0 0 1024 768;" xml:space="preserve">
<style type="text/css">
	.st0{fill:#717171;}
	.st1{fill:#FFFFFF;}
</style>
<path class="st0" d="M602.83,319.12v44.2h-0.2c-4.4-5.3-11.6-9.4-23.2-9.4c-18.7,0-33.9,14.7-33.9,36.7c0,23.1,15.3,36.5,33.2,36.5
	c13.1,0,20.9-4.2,25.3-9.4h0.2v8.5h20v-107.1H602.83z M584.73,410.92c-12.2,0-19.1-9.1-19.1-20.7c0-11.6,6.8-20.3,19.1-20.3
	s19.5,8.2,19.4,20.3C604.13,402.02,597.03,410.92,584.73,410.92z"/>
<path class="st0" d="M538.43,392.12c0-24.4-13-38.2-34.1-38.2c-24.4,0-37.3,14.3-37.3,35c0,23.4,14.3,38.2,36.7,38.2
	c16.8,0,27.2-5.8,32.3-12.4l-13.4-10.8c-2.9,3.9-9.3,8.9-18.6,8.9c-10.6,0-15.3-7.5-16.7-13.7l-0.1-2.2h50.8
	C538.03,396.92,538.43,394.52,538.43,392.12z M487.23,383.32c0.6-7.1,6.1-15.2,16.5-15.2c8.7,0,14.2,7.7,14.1,15.2H487.23z"/>
<polygon class="st0" points="467.03,354.72 442.03,354.72 417.03,383.32 417.03,319.02 395.63,319.02 395.63,426.12 417.03,426.12 
	417.03,390.42 443.43,426.12 468.73,426.12 438.53,387.12 "/>
<path class="st0" d="M309.93,354.72h20.2v10.3h0.2c3.1-5.5,12.2-11.2,23.4-11.2c21.6,0,27.6,13.7,27.6,32.7v39.6h-21.4v-35.7
	c0-10.5-3.8-17.8-12.7-17.8c-10.8,0-15.9,8.5-15.9,19.3v34.3h-21.4V354.72L309.93,354.72z"/>
<rect x="274.23" y="354.82" class="st0" width="21.4" height="71.4"/>
<path class="st0" d="M284.93,342.62c7.1,0,12.8-5.8,12.8-12.9s-5.8-12.9-12.8-12.9c-7.1,0-12.9,5.8-12.9,12.9
	S277.83,342.62,284.93,342.62z"/>
<polygon class="st0" points="217.03,319.02 195.63,319.02 195.63,426.12 259.93,426.12 259.93,404.72 217.03,404.72 "/>
<path class="st0" d="M784.73,297.62h-127.8c-6.1,0-11.3,4.8-11.3,10.8v128.4c0,6,3.4,10.8,9.5,10.8h127.8c6.1,0,12.7-4.8,12.7-10.8
	v-128.4C795.63,302.42,790.93,297.62,784.73,297.62z"/>
<path class="st1" d="M702.73,354.72h20.2v10.3h0.2c3.1-5.5,12.2-11.2,23.4-11.2c21.6,0,27.6,11.5,27.6,32.7v39.6h-21.4v-35.7
	c0-9.5-3.8-17.8-12.7-17.8c-10.8,0-15.9,7.3-15.9,19.3v34.3h-21.4L702.73,354.72L702.73,354.72z"/>
<rect x="667.03" y="354.82" class="st1" width="21.4" height="71.4"/>
<circle class="st1" cx="677.73" cy="329.72" r="13.4"/>
</svg>
